<svg width="37" height="38" viewBox="0 0 37 38" fill="none" xmlns="http://www.w3.org/2000/svg">
<path d="M3.28294 33.4592C2.3868 33.4637 1.39723 32.7133 1.22832 31.8216C0.932348 30.2596 2.30982 26.7161 3.29564 25.4537C4.28147 24.1914 5.08418 26.5621 5.44742 27.2684C5.62157 27.3066 5.56701 27.2445 5.61335 27.1728C5.97658 26.6107 6.47735 24.9313 7.33163 25.1204C7.81221 25.2265 8.54467 26.7931 8.72928 27.2692C8.90342 27.3073 8.84886 27.2453 8.8952 27.1735C9.17249 26.7445 9.69343 25.4119 10.1038 25.1772C10.825 24.7646 11.322 25.8775 11.6016 26.3731C12.34 27.6833 13.6068 30.862 12.9357 32.2604C12.5978 32.9637 11.8123 33.4091 11.041 33.4614V35.9234H9.8474V33.4614C9.53648 33.5526 9.04618 33.1677 8.84064 33.1685C8.61492 33.1685 8.14481 33.5302 7.83688 33.4644C7.75989 33.5437 7.87574 35.3397 7.83688 35.6655C7.82791 35.7403 7.80324 35.9226 7.72103 35.9226H6.56479V33.4607C6.25836 33.5706 5.70528 33.1617 5.496 33.1789C5.27402 33.1976 4.85398 33.528 4.55427 33.4637C4.47654 33.5422 4.59314 35.3389 4.55427 35.6648C4.5453 35.7395 4.52064 35.9219 4.43843 35.9219H3.28219V33.46L3.28294 33.4592ZM3.95336 26.9695C3.77548 26.9276 3.83303 27.0024 3.78818 27.0666C3.23286 27.8604 2.29487 30.6303 2.46602 31.5533C2.61401 32.3508 4.01689 32.3344 4.62602 32.1901C4.46832 31.7656 4.44067 31.3403 4.47804 30.8866C4.51989 30.3724 4.85323 29.5981 4.85099 29.1691C4.84726 28.545 4.12153 27.5883 3.95411 26.9695H3.95336ZM7.23596 26.9695C7.05883 26.9284 7.11563 27.0016 7.07079 27.0666C6.5476 27.823 5.65371 30.4419 5.6836 31.3358C5.71724 32.3351 7.19112 32.359 7.90863 32.1909C7.74868 31.7641 7.72626 31.3426 7.76064 30.8874C7.80773 30.2611 8.21357 29.418 8.0611 28.8686C7.88321 28.2259 7.4542 27.6003 7.23596 26.9702V26.9695ZM10.5178 26.9695C10.3467 26.9261 10.396 27.0024 10.3482 27.0637C9.82198 27.7348 8.9378 30.4987 8.96546 31.3358C9.00657 32.5668 11.7114 32.5832 11.8646 31.4861C11.9753 30.6938 11.4005 28.9329 11.0761 28.1653C10.905 27.7602 10.6456 27.394 10.5178 26.9695Z" fill="#ED1C25" fill-opacity="0.5"/>
<path d="M11.3354 5.41118V11.0429C11.3354 11.0735 10.9744 11.4427 10.854 11.3822C8.51242 11.1998 5.83597 11.6117 3.53545 11.3822C3.38822 11.3672 2.98088 11.1924 2.98088 11.0421V5.41043C2.20134 5.45826 1.64601 5.45228 1.82165 4.5113C1.94423 3.85209 2.45919 2.32963 2.72228 1.68237C2.84485 1.38117 2.95397 1.21525 3.31348 1.22945C5.78888 1.40658 8.564 1.00597 11.0035 1.22945C11.366 1.26233 11.4228 1.30269 11.5731 1.62931C11.7719 2.06131 12.4998 4.29007 12.5305 4.70189C12.5903 5.50909 11.9512 5.43584 11.3354 5.40968V5.41118ZM3.27909 4.21757H11.0372L10.5237 2.47163L10.4064 2.4223L3.85086 2.4238C3.7537 2.44697 3.30675 3.98289 3.27984 4.21757H3.27909ZM10.1418 5.41118H4.17449V10.1856H5.36809V8.13397C5.36809 8.09212 5.67154 7.82081 5.77991 7.79988C6.19397 7.72066 7.92347 7.74682 8.39359 7.7939C8.54157 7.80885 8.94816 7.98375 8.94816 8.13397V10.1856H10.1418V5.41118ZM7.7553 8.99199H6.5617V10.1856H7.7553V8.99199Z" fill="#ED1C25" fill-opacity="0.5"/>
<path d="M28.047 29.2823H29.2406V27.2307C29.2406 27.2068 29.5231 26.931 29.5911 26.9108C30.0209 26.7815 30.1778 26.9594 30.4312 27.2329C30.9507 27.7935 31.3916 28.6082 31.8901 29.2053L32.2242 29.2816V27.2299C32.2242 27.206 32.5068 26.9302 32.5748 26.9101C33.0045 26.7808 33.1615 26.9586 33.4149 27.2322C33.947 27.8069 34.3895 28.6381 34.9097 29.2435C35.4171 29.3944 36.0345 29.0514 36.3619 29.5813L36.4052 35.2907C36.4359 35.5344 36.2662 35.6674 36.1003 35.8064L24.816 35.8303C24.6508 35.7257 24.4639 35.5785 24.4609 35.3647L24.4804 26.052C24.6284 25.8054 24.7397 25.7239 25.02 25.6963C25.4909 25.6499 27.2189 25.623 27.6337 25.7023C27.742 25.7232 28.0455 25.9945 28.0455 26.0363V29.2816L28.047 29.2823ZM26.8534 26.8951H25.6598V34.6532H35.2079V30.4759C34.2392 30.6762 33.9119 30.0933 33.4911 29.3578C33.3693 29.3376 33.4208 29.458 33.4171 29.5424C33.4036 29.8631 33.5038 30.2128 33.16 30.4057C32.9888 30.5021 31.5972 30.5245 31.3812 30.461C31.1525 30.3937 30.6285 29.6059 30.5074 29.3578C30.3856 29.3376 30.4372 29.458 30.4335 29.5424C30.4185 29.8877 30.497 30.384 30.0216 30.4752C29.7159 30.5335 27.5701 30.5335 27.2652 30.4752C27.1568 30.4543 26.8534 30.1829 26.8534 30.1411V26.8959V26.8951Z" fill="#ED1C25" fill-opacity="0.5"/>
<path d="M29.7634 5.11296C29.9375 5.15108 29.883 5.08904 29.9293 5.01729C30.2447 4.52924 30.9286 2.65549 31.3479 2.48508C31.6177 2.37447 31.8681 2.40661 32.0781 2.6114L35.7464 9.83357C35.8652 10.2275 35.86 10.4988 35.5042 10.7439L24.4239 10.788C23.8978 10.7865 23.6825 10.2581 23.9314 9.83731L27.5959 2.6114C27.9031 2.3229 28.3045 2.36849 28.5698 2.68838C29.022 3.23324 29.3889 4.46496 29.7634 5.11371V5.11296ZM25.5099 9.58917H30.5825L28.01 4.51653L25.5099 9.58917ZM31.9996 9.58917H34.1626L31.59 4.51653C31.2672 5.22507 30.8292 5.89998 30.5833 6.63692L31.9996 9.58917Z" fill="#ED1C25" fill-opacity="0.5"/>
<path d="M20.8858 0.0405273V12.4235C22.5674 12.996 24.045 14.4699 24.6153 16.1531H36.9983V17.3467H23.9068C23.7244 17.3467 23.2349 16.047 23.0801 15.7861C22.6324 15.0297 21.9635 14.3735 21.2064 13.9296C20.9508 13.7793 19.6914 13.3092 19.6914 13.1321V0.0405273H20.885H20.8858Z" fill="#ED1C25" fill-opacity="0.5"/>
<path d="M17.3062 37.0391H16.1126V24.6561C14.4354 24.0858 12.9525 22.6029 12.383 20.9265H0V19.7329H13.0915C13.2799 19.7329 13.7425 20.9938 13.889 21.2479C14.3255 22.0005 14.9959 22.6777 15.7456 23.1216C16.0064 23.2756 17.3062 23.7659 17.3062 23.9483V37.0398V37.0391Z" fill="#ED1C25" fill-opacity="0.5"/>
<path d="M17.3062 0.0405273V13.0573C17.3062 13.3653 16.0857 13.7591 15.7912 13.9296C15.0243 14.3743 14.333 15.0656 13.889 15.8317C13.7418 16.0851 13.2799 17.3467 13.0915 17.3467H0V16.1531H12.383C12.9533 14.4759 14.4361 12.9931 16.1126 12.4235V0.0405273H17.3062Z" fill="#ED1C25" fill-opacity="0.5"/>
<path d="M37.0015 19.7339V20.9275H24.6185C24.0482 22.6047 22.5653 24.0875 20.8889 24.657V37.0401H19.6953V23.9485C19.6953 23.7706 20.9539 23.3013 21.2103 23.151C21.9674 22.7071 22.6364 22.0508 23.084 21.2945C23.238 21.0336 23.7283 19.7339 23.9107 19.7339H37.0022H37.0015Z" fill="#ED1C25" fill-opacity="0.5"/>
<path d="M17.8853 14.9785C22.9489 14.2931 23.4871 21.5923 19.0512 22.1125C14.0615 22.6977 13.5361 15.5667 17.8853 14.9785ZM18.4757 16.1818C15.3762 16.2177 15.4502 20.9338 18.525 20.8979C21.6186 20.862 21.558 16.1459 18.4757 16.1818Z" fill="#ED1C25" fill-opacity="0.5"/>
<path d="M32.8192 23.9116V25.1052H30.3946C30.0389 25.1052 29.8415 25.7017 29.7982 25.7017H28.642C28.417 25.0948 29.4118 23.9116 29.9477 23.9116H32.8192Z" fill="#ED1C25" fill-opacity="0.5"/>
<path d="M35.208 17.9429H33.418V19.1365H35.208V17.9429Z" fill="#ED1C25" fill-opacity="0.5"/>
<path d="M29.2393 17.9429H27.4492V19.1365H29.2393V17.9429Z" fill="#ED1C25" fill-opacity="0.5"/>
<path d="M9.54785 17.9429H7.75781V19.1365H9.54785V17.9429Z" fill="#ED1C25" fill-opacity="0.5"/>
<path d="M3.5791 17.9429H1.78906V19.1365H3.5791V17.9429Z" fill="#ED1C25" fill-opacity="0.5"/>
<path d="M19.0959 27.4907H17.9023V29.2808H19.0959V27.4907Z" fill="#ED1C25" fill-opacity="0.5"/>
<path d="M19.0959 7.79834H17.9023V9.58837H19.0959V7.79834Z" fill="#ED1C25" fill-opacity="0.5"/>
<path d="M19.0959 1.83044H17.9023V3.62048H19.0959V1.83044Z" fill="#ED1C25" fill-opacity="0.5"/>
<path d="M19.0959 33.4594H17.9023V35.2494H19.0959V33.4594Z" fill="#ED1C25" fill-opacity="0.5"/>
<path d="M34.0154 32.2651H28.6445V33.4587H34.0154V32.2651Z" fill="#ED1C25" fill-opacity="0.5"/>
</svg>
