<svg width="49" height="41" viewBox="0 0 49 41" fill="none" xmlns="http://www.w3.org/2000/svg">
<g clip-path="url(#clip0_3045_3036)">
<path d="M16.4839 28.6305C15.4969 28.3573 14.6197 26.147 15.3359 25.1492L34.0291 4.03029C40.3756 2.80746 34.8356 13.0471 34.7922 16.2334H47.7044C48.2721 16.2334 49.6714 18.7571 48.6137 19.4667C43.2119 25.3616 38.187 32.2083 32.6778 37.9356C31.8303 38.8162 29.9752 40.9978 28.8192 41.0013C24.3838 41.0116 29.1185 31.0062 29.3961 28.6317H16.4839V28.6305ZM46.3542 18.5573H33.0571C32.7772 18.5573 31.8782 17.3506 32.0953 16.8569L34.2153 7.32448L17.8329 26.3066H31.1301C31.2614 26.3066 32.1353 27.1803 32.0187 27.588L29.5857 37.9275L46.3531 18.5573H46.3542Z" fill="#E51B25" fill-opacity="0.5"/>
<path d="M23.97 14.6465C23.914 14.7234 22.9282 15.03 22.7112 14.991C21.4616 14.7659 15.251 4.25757 13.7889 2.67994C11.0235 6.3783 8.0296 10.2753 5.57257 14.1734C2.68263 18.7571 0.810445 21.8641 3.00018 27.465C5.73592 34.4622 14.8615 36.6472 20.7168 32.1084C21.7723 31.2908 23.3417 28.6017 24.7879 29.5858C25.873 30.324 24.0374 32.3058 23.4423 32.9109C12.5678 43.9601 -7.76915 30.9062 3.10413 13.6292C5.91982 9.1535 9.32608 4.82822 12.4559 0.560356C13.5022 -0.273239 14.3578 -0.153826 15.3024 0.765884C16.471 1.90375 22.7421 10.9929 23.5622 12.605C23.8135 13.0987 24.2841 14.2171 23.97 14.6465Z" fill="#E51B25" fill-opacity="0.5"/>
<path d="M6.98008 22.1179C7.14457 22.3682 7.28621 24.6439 7.62775 25.5269C7.99213 26.4684 10.4389 28.8475 8.73347 29.3756C6.13252 30.1828 2.97985 21.7895 6.01029 21.7378C6.17136 21.7355 6.91155 22.0145 6.98008 22.1179Z" fill="#E51B25" fill-opacity="0.5"/>
</g>
<defs>
<clipPath id="clip0_3045_3036">
<rect width="49" height="41" fill="white"/>
</clipPath>
</defs>
</svg>
