<svg width="33" height="34" viewBox="0 0 33 34" fill="none" xmlns="http://www.w3.org/2000/svg">
<path d="M24.7497 5.30762H23.7185L23.1585 0.952051C23.0992 0.762619 22.2864 0.86319 22.1128 0.917609C22.0219 0.94654 22.0136 0.996826 21.9978 1.08087L22.5495 5.30762H10.4493L11.001 1.08087C10.9955 1.00096 10.9693 0.943096 10.8867 0.91692C10.7772 0.882478 9.96638 0.817726 9.89474 0.868701L9.28098 5.30762H8.24978L8.80154 1.08087C8.79603 1.00096 8.76985 0.943096 8.68719 0.91692C8.57767 0.882478 7.76689 0.817726 7.69525 0.868701L7.07805 5.30349L0.237122 5.37237L0.0359802 5.58385L0.00153732 11.5279C0.179947 12.0397 0.658695 11.8971 1.10025 11.9075V19.6074H0.000160217V20.7075H3.30042V19.6074H2.20033V11.9075H6.18806L3.29973 33.5317C3.29422 33.6343 3.27424 33.8155 3.36517 33.8775C3.42648 33.9188 4.4191 34.0738 4.45975 33.863L7.35703 11.9075H8.38823L5.4999 33.5317C5.49439 33.6343 5.47442 33.8155 5.56534 33.8775C5.62665 33.9188 6.61928 34.0738 6.65992 33.863L9.59647 11.9047L23.4443 11.9081L26.3423 33.863C26.4167 34.0986 27.2612 33.8913 27.4706 33.8431L24.6133 11.9068H25.6445L28.5962 33.9457C28.9434 33.9409 29.8485 34.0697 29.7018 33.5317L26.8135 11.9075H30.7998V19.6074H29.6997V20.7075H33V19.6074H31.8999V11.9075C32.3415 11.8971 32.8202 12.0397 32.9986 11.5279L32.9642 5.58385L32.763 5.37237L25.9221 5.30349L25.3586 0.952051C25.2994 0.762619 24.4866 0.86319 24.313 0.917609C24.222 0.94654 24.2138 0.996826 24.1979 1.08087L24.7497 5.30762ZM1.09956 6.40771H31.8999V10.8081H1.09956V6.40771Z" fill="#ED1C25" fill-opacity="0.5"/>
<path d="M15.9507 0.907227H17.0508V3.1074H15.9507V0.907227Z" fill="#ED1C25" fill-opacity="0.5"/>
<path d="M15.9507 14.1074H17.0508V16.3076H15.9507V14.1074Z" fill="#ED1C25" fill-opacity="0.5"/>
<path d="M15.9507 18.5078H17.0508V20.708H15.9507V18.5078Z" fill="#ED1C25" fill-opacity="0.5"/>
<path d="M15.9507 22.9082H17.0508V25.1084H15.9507V22.9082Z" fill="#ED1C25" fill-opacity="0.5"/>
<path d="M15.9507 27.3076H17.0508V29.5078H15.9507V27.3076Z" fill="#ED1C25" fill-opacity="0.5"/>
<path d="M15.9507 31.707H17.0508V33.9072H15.9507V31.707Z" fill="#ED1C25" fill-opacity="0.5"/>
<path d="M23.0997 8.0575H27.5V9.15758H23.0997V8.0575Z" fill="#ED1C25" fill-opacity="0.5"/>
<path d="M14.2989 8.0575H18.6992V9.15758H14.2989V8.0575Z" fill="#ED1C25" fill-opacity="0.5"/>
<path d="M5.49809 8.0575H9.89844V9.15758H5.49809V8.0575Z" fill="#ED1C25" fill-opacity="0.5"/>
</svg>
