<svg width="40" height="40" viewBox="0 0 40 40" fill="none" xmlns="http://www.w3.org/2000/svg">
<path d="M8.16147 -0.00012207H39.7208V3.10134C39.4605 3.74774 38.3254 3.50767 38.3254 2.90711V1.39523H19.0951V16.5934H31.1529C31.198 16.5934 31.5654 16.7713 31.6167 16.828C32.0246 17.2825 31.6338 18.0672 31.076 18.0672H19.0959V22.5259C19.0959 23.0022 18.451 23.3122 18.0167 23.062C17.9592 23.0286 17.7005 22.7808 17.7005 22.759V1.39678H9.17069V30.5523H17.7005V27.0243C17.7005 27.0026 17.96 26.7508 18.0167 26.7205C18.444 26.489 19.0966 26.7874 19.0966 27.2574V30.5531H38.327V18.0687H35.7297C35.1377 18.0687 34.7205 17.3276 35.1455 16.8645C35.2131 16.7915 35.586 16.5957 35.6521 16.5957H38.327V4.92555C38.327 4.90302 38.5173 4.58526 38.564 4.54176C38.9664 4.16728 39.3945 4.40734 39.7231 4.73132V31.5607C39.4823 31.9539 39.1086 31.9974 38.6797 32.0292H8.7426C7.90586 31.957 7.75514 31.7154 7.69531 30.905V1.04484C7.72717 0.615982 7.77068 0.242279 8.1638 0.00143329L8.16147 -0.00012207Z" fill="#ED1C25" fill-opacity="0.5"/>
<path d="M39.7202 37.0643C39.5843 37.2539 39.453 37.365 39.265 37.5009C38.185 38.2786 36.8697 38.894 35.7696 39.6655C35.4378 39.8488 34.7573 39.5621 34.7573 39.197V37.5297H12.7354V39.197C12.7354 39.2156 12.5839 39.4914 12.556 39.5217C12.3439 39.7525 11.9539 39.7416 11.6711 39.6406C11.2173 39.4774 8.52608 37.7636 8.09023 37.4062C7.62097 37.0216 7.62097 36.564 8.09023 36.1794C8.52608 35.822 11.2173 34.1081 11.6711 33.945C11.9531 33.844 12.3431 33.8323 12.556 34.0639C12.5839 34.0942 12.7354 34.37 12.7354 34.3886V36.0559H34.7573V34.3886C34.7573 34.0235 35.4378 33.7368 35.7696 33.9201C36.8736 34.6901 38.1781 35.3085 39.265 36.0846C39.4538 36.2198 39.5843 36.3317 39.7202 36.5213V37.0643ZM11.3409 37.762V35.8236L9.78935 36.7932L11.3409 37.7628V37.762ZM36.1534 35.8236V37.762L37.7049 36.7924L36.1534 35.8228V35.8236Z" fill="#ED1C25" fill-opacity="0.5"/>
<path d="M3.20039 -0.00012207C3.38996 0.135839 3.50106 0.267138 3.63702 0.455153C4.41472 1.53507 5.03004 2.85041 5.80152 3.95053C5.98488 4.2815 5.6982 4.96286 5.33305 4.96286H3.66577V7.79318C3.66577 8.31527 2.89506 8.69752 2.46154 8.29973C2.38851 8.23214 2.19273 7.85922 2.19273 7.79318V4.96286H0.525454C0.160301 4.96286 -0.12638 4.28227 0.0569732 3.95053C0.826902 2.84652 1.44533 1.54207 2.22147 0.455153C2.35666 0.266361 2.46854 0.135839 2.6581 -0.00012207H3.20117H3.20039ZM3.89807 3.56672L2.92847 2.01522L1.95887 3.56672H3.8973H3.89807Z" fill="#ED1C25" fill-opacity="0.5"/>
<path d="M3.66502 26.984H5.3323C5.35094 26.984 5.62675 27.1355 5.65705 27.1635C5.88779 27.3756 5.87692 27.7656 5.77592 28.0484C5.61276 28.5021 3.89887 31.1934 3.54149 31.6292C3.15691 32.0985 2.69931 32.0985 2.31473 31.6292C1.95735 31.1934 0.243461 28.5021 0.0803074 28.0484C-0.0206924 27.7656 -0.0323487 27.3764 0.199174 27.1635C0.229474 27.1355 0.505285 26.984 0.523931 26.984H2.1912V9.57633C2.1912 8.66189 3.66424 8.66189 3.66424 9.57633V26.984H3.66502ZM3.89732 28.3802H1.9589L2.9285 29.9317L3.8981 28.3802H3.89732Z" fill="#ED1C25" fill-opacity="0.5"/>
</svg>
