<svg width="44" height="45" viewBox="0 0 44 45" fill="none" xmlns="http://www.w3.org/2000/svg">
<g clip-path="url(#clip0_3045_3006)">
<path d="M17.1243 43.7829C17.0854 43.963 16.7257 44.366 16.4973 44.3259L1.66078 44.278C1.24663 44.143 1.20386 43.4845 1.17566 43.103C0.941367 35.3936 1.48287 27.4954 1.22622 19.8115C1.20969 19.3037 0.258895 19.8232 0.0314046 19.2079C0.033349 15.1683 -0.067758 11.0954 0.0829303 7.06855C0.290977 6.62829 1.13191 6.80048 1.17955 6.75352C1.34191 6.59503 1.11247 2.86264 1.17858 2.20324C1.19511 2.03789 1.29913 1.60351 1.39927 1.49491C1.83772 1.01846 4.9244 1.41958 5.06925 1.27478C5.17522 1.16912 4.77468 0.14186 5.60979 0.00880511L17.3236 0.0469606C17.8807 0.217193 17.6814 0.817897 17.7076 1.27478L26.6381 1.26011C26.8685 0.735716 26.5185 0.135012 27.2895 0.00782677L38.7573 0C39.4544 0.0107618 39.4933 0.744521 39.3863 1.27283C39.5458 1.38142 42.6626 1.20826 43.2294 1.27087C43.4666 1.29729 43.8457 1.40686 43.9138 1.65634L44.0013 43.4914C43.9721 43.9913 43.7806 44.3504 43.2313 44.3259L28.8323 44.3279C28.5338 44.3611 28.109 44.0843 28.109 43.7829V41.5327C28.109 41.2911 26.6128 41.3782 26.3581 41.4339L19.2845 44.9873C18.5009 45.1145 18.2326 44.2506 18.6827 43.69L25.696 40.0838C26.8053 39.8705 27.9875 40.0907 29.1278 40.0183C29.2785 39.9928 29.5673 40.3734 29.5673 40.4566V42.8535H32.9699V36.1518C32.9699 35.7047 33.7234 35.3936 34.1307 35.6685C34.2133 35.7243 34.4282 35.9914 34.4282 36.054V42.8535H42.4487C42.4594 42.8535 42.5945 42.7175 42.5945 42.7068V23.5801H34.4282V30.9666C34.4282 31.4753 33.1692 31.76 32.9913 30.9451L32.9699 23.5801H30.8797C30.0874 23.5801 30.0932 22.1126 30.6853 22.1126H42.4487C42.4594 22.1126 42.5945 21.9766 42.5945 21.9658V2.74133H39.4835C39.4058 2.74133 39.6537 3.87816 38.8458 4.0073L27.2097 3.98676C26.4971 3.82631 26.8209 2.74133 26.7479 2.74133H23.3453V11.204C23.3453 11.6306 22.5403 11.9065 22.1466 11.6521C22.1048 11.6257 21.887 11.2295 21.887 11.204V2.74133H17.7066C17.6289 2.74133 17.9653 3.7725 17.3226 3.96915L5.60881 4.0073C4.70566 3.8586 5.2598 2.74133 4.92245 2.74133H2.63783V6.60579C3.04614 6.91788 3.78792 6.551 3.89291 7.29553L3.85889 19.1834C3.66251 19.7959 2.63783 19.4309 2.63783 19.7156V21.9658C2.63783 21.9766 2.77296 22.1126 2.78365 22.1126H6.38073C6.90376 22.1126 6.9864 23.5801 6.18629 23.5801H2.6388V30.8688C2.6388 30.8795 2.77393 31.0155 2.78462 31.0155H5.79839C6.06088 31.0155 6.39823 31.357 6.43517 31.6466C6.64905 33.3078 6.26212 35.423 6.43517 37.1351C6.51392 37.2926 6.03269 37.7661 5.99283 37.7661H2.6388V42.8535H15.666V40.4566C15.666 40.2736 16.1016 39.9811 16.2941 39.9645C16.6013 39.939 19.128 39.938 19.3234 39.9958C20.2635 40.2746 19.723 41.385 19.5062 41.385H17.1243C17.0242 42.0718 17.2604 43.149 17.1243 43.782V43.7829ZM16.3466 1.46948H6.57614C6.36226 1.46948 6.36226 2.54566 6.57614 2.54566H16.3466V1.46948ZM38.0262 1.46948H28.2558C28.0419 1.46948 28.0419 2.54566 28.2558 2.54566H38.0262V1.46948ZM2.54158 8.22006H1.37496V18.1014C1.67536 18.0495 2.54158 18.2765 2.54158 17.8568V8.22006ZM4.97203 32.483H2.6388V36.2986H4.97203V32.483Z" fill="#E51B25" fill-opacity="0.5"/>
<path d="M21.8878 16.7807C22.0132 16.2211 22.9922 16.1379 23.2664 16.6731L23.3461 22.1127H25.5335C26.0487 22.1127 26.3734 23.3669 25.3157 23.5567C23.2625 23.4559 20.9389 23.77 18.9178 23.5851C17.5626 23.4608 18.1653 22.1127 18.4366 22.1127H21.8878V16.7807Z" fill="#E51B25" fill-opacity="0.5"/>
<path d="M23.2176 14.8434C22.9814 15.1731 22.1492 15.1702 21.9586 14.7524C21.7681 14.3346 21.7827 13.0892 22.2483 12.8407C23.4354 12.2087 23.6026 14.3053 23.2176 14.8444V14.8434Z" fill="#E51B25" fill-opacity="0.5"/>
</g>
<defs>
<clipPath id="clip0_3045_3006">
<rect width="44" height="45" fill="white"/>
</clipPath>
</defs>
</svg>
