<svg width="938" height="642" viewBox="0 0 938 642" fill="none" xmlns="http://www.w3.org/2000/svg">
<path d="M97.515 300.921V637.561H59.998V380.239H0.811035V357.629H19.0904C54.2488 357.629 70.0959 335.977 70.0959 300.847H97.515V300.921Z" fill="white"/>
<path d="M299.695 296.649C369.938 296.649 396.473 358.218 396.473 445.269C396.473 568.849 370.454 641.98 292.472 641.98C251.564 641.98 225.103 623.2 211.615 580.927L245.815 575.624C253.038 603.537 264.61 622.243 293.946 622.243C337.728 622.243 355.565 552.499 357.998 478.926C340.16 494.834 321.439 508.237 290.113 508.237C239.55 508.237 204.465 468.321 204.465 402.406C204.465 336.492 241.024 296.576 299.769 296.576L299.695 296.649ZM298.737 487.542C321.365 487.542 342.519 473.623 356.966 454.328C356.966 366.761 338.686 316.313 298.737 316.313C262.62 316.313 244.783 353.799 244.783 398.577C244.783 448.583 260.704 487.542 298.737 487.542Z" fill="white"/>
<path d="M563.421 641.907C519.122 641.907 486.396 613.995 476.741 569.806L510.425 565.461C515.216 593.373 532.095 621.286 564.821 621.286C603.812 621.286 620.175 578.939 620.175 539.537C620.175 495.276 599.979 454.917 556.639 454.917C537.402 454.917 520.523 463.092 510.941 480.399L493.104 478.484V300.995H647.594V338.997H519.565V447.7C534.969 437.61 549.858 432.823 569.612 432.823C624.524 432.823 660.567 472.74 660.567 534.75C660.567 601.106 621.133 641.98 563.347 641.98L563.421 641.907Z" fill="white"/>
<path d="M844.024 641.907C774.223 641.907 745.846 580.338 745.846 493.287C745.846 373.021 771.865 296.576 849.847 296.576C890.239 296.576 912.941 315.356 928.788 357.629L894.145 362.932C886.406 335.535 876.308 316.313 846.973 316.313C805.107 316.313 787.27 387.972 784.395 457.715C802.232 441.366 823.828 430.319 852.279 430.319C906.16 430.319 938.001 472.15 938.001 534.235C938.001 602.506 903.359 641.98 844.098 641.98L844.024 641.907ZM843.582 451.014C822.428 451.014 799.8 462.576 785.353 482.24C785.353 569.806 805.549 622.169 845.056 622.169C881.173 622.169 897.536 582.695 897.536 537.991C897.536 490.341 884.047 450.94 843.582 450.94V451.014Z" fill="white"/>
<path d="M88.4488 143.685V151.197C88.4488 174.764 84.3949 205.623 43.7821 205.623C7.37073 205.623 0 182.129 0 151.934V50.8901C0 19.7374 13.9307 0 44.2244 0C80.7095 0 87.5643 24.5981 87.5643 51.8475V60.4642H59.187V48.7544C59.187 34.7614 56.2387 25.7028 44.1507 25.7028C32.0627 25.7028 28.8933 34.2459 28.8933 48.9753V154.143C28.8933 169.094 31.989 180.067 44.5929 180.067C57.1969 180.067 59.8503 169.977 59.8503 154.07V143.612H88.5225L88.4488 143.685Z" fill="white"/>
<path d="M107.097 2.87292H135.401V82.8536H170.854V2.87292H199.158V202.825H170.854V108.851H135.401V202.825H107.097V2.87292Z" fill="white"/>
<path d="M251.859 146.558L244.193 202.825H215.447L247.805 2.87292H287.828L321.512 202.825H291.955L283.405 146.558H251.859ZM280.015 120.561C274.782 83.8847 270.212 51.1854 268.074 29.5332H267.042C266.232 45.7355 259.893 89.1136 255.544 120.561H280.089H280.015Z" fill="white"/>
<path d="M365.147 112.312V202.751H336.844V2.87292H377.456C407.824 2.87292 424.924 15.2456 424.924 50.4489V58.4764C424.924 88.2299 413.131 96.9202 404.58 100.308C416.521 105.537 423.007 114.301 423.007 141.329C423.007 158.195 422.712 190.599 424.85 202.825H397.505C394.851 190.673 395.367 157.605 395.367 143.171C395.367 118.352 392.124 112.312 373.697 112.312H365.147ZM365.147 88.8927H373.845C390.871 88.8927 396.62 81.4543 396.62 59.8021V52.3637C396.62 36.1614 392.935 26.3663 374.729 26.3663H365.147V88.8927Z" fill="white"/>
<path d="M468.189 29.0913H435.979V2.87292H528.703V29.0913H496.419V202.825H468.116V29.0913H468.189Z" fill="white"/>
<path d="M614.941 109.956H570.716V176.754H621.501L617.889 202.751H542.487V2.87292H617.447V29.0913H570.79V84.032H615.015V110.029L614.941 109.956Z" fill="white"/>
<path d="M665.357 112.312V202.751H637.054V2.87292H677.74C708.108 2.87292 725.208 15.2456 725.208 50.4489V58.4764C725.208 88.2299 713.414 96.9202 704.864 100.308C716.805 105.537 723.291 114.301 723.291 141.329C723.291 158.195 722.996 190.599 725.134 202.825H697.789C695.135 190.673 695.725 157.605 695.725 143.171C695.725 118.352 692.482 112.312 674.055 112.312H665.505H665.357ZM665.357 88.8927H674.055C691.081 88.8927 696.83 81.4543 696.83 59.8021V52.3637C696.83 36.1614 693.145 26.3663 674.939 26.3663H665.357V88.8927Z" fill="white"/>
<path d="M820.805 109.956H776.58V176.754H827.365L823.753 202.751H748.351V2.87292H823.311V29.0913H776.654V84.032H820.879V110.029L820.805 109.956Z" fill="white"/>
<path d="M842.844 2.87292H883.899C926.575 2.87292 935.568 26.1454 935.568 61.7906V139.046C935.568 169.61 930.482 202.751 883.53 202.751H842.844V2.87292ZM871.148 178.668H881.614C902.989 178.668 906.748 165.486 906.748 143.244V59.2866C906.748 39.6228 903.284 27.2501 881.54 27.2501H871.148V178.668Z" fill="white"/>
</svg>
