<svg width="44" height="43" viewBox="0 0 44 43" fill="none" xmlns="http://www.w3.org/2000/svg">
<path d="M32.248 30.4849V14.3295C32.248 14.0173 32.9182 13.556 33.1869 13.4179C34.1856 12.9055 38.1445 11.2518 39.1203 11.0789C39.8612 10.9472 40.5248 11.2714 40.7914 11.9873C40.8632 21.1148 41.0046 30.2217 40.9491 39.3535C40.9415 40.2195 42.8268 41.4162 42.9976 41.9852C43.1053 42.3409 42.9672 42.8251 42.5897 42.9469L0.856509 43.0002C-1.47922 42.4301 1.66265 40.621 2.03036 39.7028C2.21857 30.7939 2.06517 21.8361 2.1076 12.9087C2.1794 11.9481 2.48184 11.0528 3.60021 11.0484C4.13872 11.0462 9.28996 13.0741 9.9514 13.4505C10.2256 13.6061 10.8152 14.1217 10.8152 14.4361V30.4828C11.4843 29.7158 12.7669 28.7149 13.3185 27.9273C13.4849 27.6901 13.5861 27.4399 13.634 27.1549L13.6481 11.8208C13.5948 11.2551 13.5154 11.1104 13.09 10.7471C9.25949 7.46702 4.40743 4.73421 0.479006 1.49333C0.000327437 1.13976 -0.169386 0.461999 0.421347 0.126924C0.966388 -0.182041 1.27753 0.197638 1.71269 0.478318C6.12197 3.31884 10.2147 7.14065 14.6849 9.91699C19.2835 10.0584 23.9745 10.1824 28.5502 9.86803L41.8684 0.123661C42.7833 -0.274513 43.3947 0.773141 42.6375 1.43676L29.9732 10.7481L29.4684 11.3313L29.4304 27.2647L29.6882 27.8772L32.2491 30.4838L32.248 30.4849ZM27.8964 11.5554H15.1679V27.1124H17.1261V15.8526C17.1261 15.8123 17.3013 15.165 17.335 15.0824C17.5613 14.533 18.1531 14.3317 18.7047 14.2762C20.0308 14.1424 23.1477 14.1315 24.4575 14.2871C24.7078 14.3165 25.0722 14.4111 25.2822 14.5504C25.4236 14.6439 25.8294 15.1988 25.8294 15.3086V27.1124H27.8964V11.5554ZM9.29322 24.9366C8.69487 25.2565 7.87459 25.1596 7.8735 24.3383C7.87241 23.4701 9.21163 23.4603 9.29431 23.0339L9.23991 14.9257L3.74381 12.6433V37.9915L8.91463 32.5552C8.98969 32.4584 9.29213 32.0102 9.29213 31.9536V24.9366H9.29322ZM39.3194 24.5015V12.6433L33.7635 14.9779L33.7939 32.0396C33.8429 32.2582 34.7818 33.2722 35.0211 33.5322C36.3919 35.0291 37.8584 36.4749 39.3194 37.8827V26.4053C39.3194 26.0626 37.3264 25.6492 38.0716 24.6124C38.5557 23.9379 39.2792 24.5569 39.3194 24.5015ZM24.3063 15.907H18.758V27.1124H24.3063V22.9784C24.3063 22.8848 22.8191 23.234 22.8812 22.1625C22.9366 21.2116 24.3063 21.5434 24.3063 21.4553V15.907ZM40.4073 41.4728C36.4702 37.206 32.4395 33.0132 28.4121 28.827C23.8385 28.6736 19.2051 28.7236 14.625 28.8009C14.3357 29.0913 14.0332 29.3709 13.7504 29.6668C10.2995 33.2667 6.54408 37.0037 3.25317 40.7102C3.0432 40.9473 2.86805 41.2356 2.65591 41.4728H4.34216C8.03451 37.7696 11.4941 33.8074 15.2321 30.1694L15.7597 30.0443C19.4728 30.313 23.6438 29.706 27.3024 30.0443C27.7822 30.0889 28.0542 30.3109 28.4012 30.6318C31.2417 33.2547 33.9593 36.6588 36.7041 39.4634C36.9608 39.7267 38.5775 41.4728 38.72 41.4728H40.4062H40.4073ZM36.4909 41.4728C33.4034 38.2004 30.342 34.891 27.1642 31.7067C26.9662 31.6033 26.7574 31.5892 26.5409 31.5685C23.2989 31.2639 19.5957 31.81 16.3037 31.5652L16.011 31.6011L15.6422 31.8274L6.57454 41.4717H36.4919L36.4909 41.4728Z" fill="#ED1C25" fill-opacity="0.5"/>
<path d="M20.5808 0.0494434C22.7381 -0.285632 25.9441 1.09818 25.0129 3.72004C24.111 6.25703 19.7866 6.47026 18.3429 4.30316C17.1158 2.46133 18.6149 0.356233 20.5808 0.0505313V0.0494434ZM20.9071 1.57251C20.0847 1.70415 19.0958 2.40585 19.5462 3.31642C20.3305 4.89933 23.8216 4.30642 23.5856 2.7605C23.418 1.66825 21.8134 1.42782 20.9071 1.57251Z" fill="#ED1C25" fill-opacity="0.5"/>
</svg>
