<svg width="101" height="173" viewBox="0 0 101 173" fill="none" xmlns="http://www.w3.org/2000/svg">
<rect width="100.539" height="173" fill="white"/>
<path d="M100.807 0H0.000488281V128.071H100.807V0Z" fill="#ED1C24"/>
<path d="M100.807 162.346H0.0529785V173H100.807V162.346Z" fill="#ED1C24"/>
<path fill-rule="evenodd" clip-rule="evenodd" d="M98.1087 145.803C98.1087 142.877 97.8284 140.862 97.2852 139.811C96.7946 138.899 95.9535 138.444 94.7269 138.444H93.1324V153.461H94.6393C95.8308 153.461 96.6894 152.987 97.1976 152.041C97.8109 150.92 98.1087 148.835 98.1087 145.821M100.737 145.61C100.737 149.203 100.334 151.813 99.5105 153.425C98.6519 155.108 97.2502 155.949 95.2876 155.949H90.6267V135.938H95.3402C97.0749 135.938 98.3541 136.481 99.1426 137.585C100.194 139.057 100.72 141.738 100.72 145.593L100.737 145.61ZM88.7343 155.949H80.0081V135.938H88.5065V138.654H82.5313V144.209H88.156V146.907H82.5313V153.25H88.7343V155.966V155.949ZM75.2245 141.633C75.2245 139.513 74.3484 138.444 72.6136 138.444H70.7212V144.892H72.6136C74.3484 144.892 75.2245 143.806 75.2245 141.633ZM78.4661 155.949H75.61C75.2595 155.423 75.1018 153.969 75.1018 151.568C75.1018 149.816 74.9266 148.642 74.5937 148.064C74.2958 147.538 73.7 147.275 72.8239 147.275H70.7387V155.949H68.2155V135.938H73.7C74.839 135.938 75.7502 136.271 76.4511 136.919C77.3797 137.813 77.8528 139.25 77.8528 141.212C77.8528 142.527 77.59 143.613 77.0819 144.507C76.5737 145.383 75.978 145.891 75.2946 146.031V146.084C76.1532 146.276 76.7489 146.679 77.0994 147.31C77.5199 148.116 77.7302 149.5 77.7302 151.498C77.7302 153.916 77.9755 155.406 78.4837 155.949H78.4661ZM66.4282 155.949H57.7021V135.938H66.218V138.654H60.2428V144.209H65.85V146.907H60.2428V153.25H66.4282V155.966V155.949ZM56.4054 138.724H52.6381V155.966H50.1149V138.724H46.3476V135.956H56.4054V138.724ZM42.6679 141.633C42.6679 139.513 41.7917 138.444 40.057 138.444H38.1646V144.892H40.057C41.8093 144.892 42.6679 143.806 42.6679 141.633ZM45.9095 155.949H43.0533C42.7029 155.423 42.5452 153.969 42.5452 151.568C42.5452 149.816 42.37 148.642 42.037 148.064C41.7392 147.538 41.1434 147.275 40.2673 147.275H38.1821V155.949H35.6589V135.938H41.1434C42.2824 135.938 43.1935 136.271 43.8944 136.919C44.8231 137.813 45.2962 139.25 45.2962 141.212C45.2962 142.527 45.0334 143.613 44.5252 144.507C44.0171 145.383 43.4038 145.891 42.7379 146.031V146.084C43.5965 146.276 44.1923 146.679 44.5428 147.31C44.9808 148.116 45.1911 149.5 45.1911 151.498C45.1911 153.916 45.4364 155.406 45.9445 155.949H45.9095ZM30.5599 148.467L28.7901 139.11H28.7551L26.8451 148.467H30.5774H30.5599ZM34.6075 155.949H31.9792L30.9804 151.007H26.4071L25.4258 155.949H22.7799L27.178 135.938H30.4723L34.6075 155.949ZM21.7636 155.949H19.2229V146.697H14.5619V156.054L12.0387 155.949V135.938H14.5619V143.928H19.2229V135.938H21.7636V155.949ZM10.3565 148.782C10.3565 151.077 9.936 152.9 9.09493 154.249C8.21881 155.651 6.97472 156.352 5.36266 156.352C3.61042 156.352 2.3488 155.651 1.54277 154.267C0.631608 152.672 0.176025 149.939 0.176025 146.049C0.176025 142.159 0.579041 139.67 1.36755 138.023C2.17358 136.376 3.50528 135.535 5.41522 135.535C8.62182 135.535 10.2339 137.725 10.2339 142.124H7.67561C7.67561 139.337 6.92215 137.953 5.41522 137.953C4.36388 137.953 3.66298 138.654 3.27749 140.056C2.94457 141.247 2.80439 143.245 2.80439 146.084C2.80439 148.922 2.99713 151.095 3.40015 152.234C3.78564 153.355 4.45149 153.916 5.3977 153.916C7.00976 153.916 7.79827 152.199 7.79827 148.765H10.3741L10.3565 148.782Z" fill="black"/>
<path fill-rule="evenodd" clip-rule="evenodd" d="M88.1033 87.0692C84.3711 104.276 69.0039 117.173 50.6755 117.173C29.5435 117.173 12.4241 100.036 12.4241 78.9038C12.4241 57.7718 29.5435 40.6524 50.6755 40.6524C70.3356 40.6524 86.4387 55.5815 88.5063 74.6634C88.7341 75.925 88.8393 81.1817 82.759 81.83C79.5874 81.9001 76.9591 79.3068 76.9591 76.3806C77.0817 73.2265 79.5524 70.8084 83.3022 71.0012C85.51 70.9837 87.5952 72.6132 88.3311 74.786C85.8605 66.6381 78.098 61.2412 69.1441 61.2412C58.1751 61.2412 49.2912 70.1251 49.2912 81.0766C49.2912 92.0281 58.1926 100.912 69.1441 100.912C78.0104 100.912 85.5451 95.0945 88.0858 87.0867" fill="white"/>
</svg>
